<svg xmlns="http://www.w3.org/2000/svg" enable-background="new 0 0 1000 1000" viewBox="0 0 1000 1000"><rect width="1000" height="1000" fill="#d6f2c7"/><g opacity=".23"><polyline fill="none" stroke="#474747" stroke-linecap="round" stroke-linejoin="round" stroke-miterlimit="10" stroke-width="6" points="619.242 271.396 619.242 240.465 557.38 240.465"/><polyline fill="none" stroke="#474747" stroke-linecap="round" stroke-linejoin="round" stroke-miterlimit="10" stroke-width="6" points="681.104 240.465 619.242 240.465 619.242 271.396"/><rect width="61.862" height="30.931" x="588.311" y="209.535" fill="none" stroke="#474747" stroke-linecap="round" stroke-linejoin="round" stroke-miterlimit="10" stroke-width="6"/><polyline fill="none" stroke="#474747" stroke-linecap="round" stroke-linejoin="round" stroke-miterlimit="10" stroke-width="6" points="636.82 178.604 619.242 178.604 619.242 209.535 681.104 209.535"/><polyline fill="none" stroke="#474747" stroke-linecap="round" stroke-linejoin="round" stroke-miterlimit="10" stroke-width="6" points="557.38 209.535 619.242 209.535 619.242 178.604 569.08 178.604"/><polyline fill="none" stroke="#474747" stroke-linecap="round" stroke-linejoin="round" stroke-miterlimit="10" stroke-width="6" points="536.293 240.465 588.311 240.465 588.311 209.535 557.38 209.535"/><polyline fill="none" stroke="#474747" stroke-linecap="round" stroke-linejoin="round" stroke-miterlimit="10" stroke-width="6" points="694.815 209.535 650.173 209.535 650.173 240.465 671.617 240.465"/></g><g opacity=".23"><polyline fill="none" stroke="#474747" stroke-linecap="round" stroke-linejoin="round" stroke-miterlimit="10" stroke-width="6" points="224.207 420.2 224.207 451.131 162.345 451.131"/><polyline fill="none" stroke="#474747" stroke-linecap="round" stroke-linejoin="round" stroke-miterlimit="10" stroke-width="6" points="286.069 451.131 224.207 451.131 224.207 420.2"/><rect width="61.862" height="30.931" x="193.276" y="451.131" fill="none" stroke="#474747" stroke-linecap="round" stroke-linejoin="round" stroke-miterlimit="10" stroke-width="6"/><polyline fill="none" stroke="#474747" stroke-linecap="round" stroke-linejoin="round" stroke-miterlimit="10" stroke-width="6" points="241.784 512.993 224.207 512.993 224.207 482.062 286.069 482.062"/><polyline fill="none" stroke="#474747" stroke-linecap="round" stroke-linejoin="round" stroke-miterlimit="10" stroke-width="6" points="162.345 482.062 224.207 482.062 224.207 512.993 174.044 512.993"/><polyline fill="none" stroke="#474747" stroke-linecap="round" stroke-linejoin="round" stroke-miterlimit="10" stroke-width="6" points="141.258 451.131 193.276 451.131 193.276 482.062 162.345 482.062"/><polyline fill="none" stroke="#474747" stroke-linecap="round" stroke-linejoin="round" stroke-miterlimit="10" stroke-width="6" points="299.78 482.062 255.138 482.062 255.138 451.131 276.581 451.131"/></g><g opacity=".23"><polyline fill="none" stroke="#474747" stroke-linecap="round" stroke-linejoin="round" stroke-miterlimit="10" stroke-width="6" points="849.99 567.021 849.99 597.951 911.852 597.951"/><polyline fill="none" stroke="#474747" stroke-linecap="round" stroke-linejoin="round" stroke-miterlimit="10" stroke-width="6" points="788.128 597.951 849.99 597.951 849.99 567.021"/><rect width="61.862" height="30.931" x="819.059" y="597.951" fill="none" stroke="#474747" stroke-linecap="round" stroke-linejoin="round" stroke-miterlimit="10" stroke-width="6" transform="rotate(-180 849.99 613.417)"/><polyline fill="none" stroke="#474747" stroke-linecap="round" stroke-linejoin="round" stroke-miterlimit="10" stroke-width="6" points="832.413 659.813 849.99 659.813 849.99 628.882 788.128 628.882"/><polyline fill="none" stroke="#474747" stroke-linecap="round" stroke-linejoin="round" stroke-miterlimit="10" stroke-width="6" points="911.852 628.882 849.99 628.882 849.99 659.813 873.178 659.813"/><polyline fill="none" stroke="#474747" stroke-linecap="round" stroke-linejoin="round" stroke-miterlimit="10" stroke-width="6" points="932.939 597.951 880.921 597.951 880.921 628.882 911.852 628.882"/><polyline fill="none" stroke="#474747" stroke-linecap="round" stroke-linejoin="round" stroke-miterlimit="10" stroke-width="6" points="774.417 628.882 819.059 628.882 819.059 597.951 797.615 597.951"/></g><line x1="201" x2="902.173" y1="726" y2="726" fill="none" stroke="#333" stroke-linecap="round" stroke-linejoin="round" stroke-miterlimit="10" stroke-width="10"/><line x1="150.5" x2="178.333" y1="726" y2="726" fill="none" stroke="#333" stroke-linecap="round" stroke-linejoin="round" stroke-miterlimit="10" stroke-width="10"/><polygon fill="#333" points="372.326 726 284.555 726 284.555 706 392.549 706"/><polygon fill="#333" points="503.674 726 591.445 726 591.445 706 483.451 706"/><path fill="#ffc859" d="M618,614.894c-118.537,23.977-241.463,23.977-360,0c0-33.357,0-66.713,0-100.069
		c0-9.864,8.841-19.793,19.795-21.872c105.776-18.945,214.633-18.945,320.409,0c10.955,2.08,19.795,12.008,19.795,21.872
		C618,548.181,618,581.538,618,614.894z"/><path fill="#f9d895" d="M279.93,502.69c104.366-16.433,211.773-16.433,316.139,0
		c7.045,1.176,13.185,5.25,16.62,10.31c0-0.986,0-1.973,0-2.959c0-8.556-8.58-17.168-19.211-18.972
		c-102.655-16.433-208.301-16.433-310.957,0c-10.631,1.804-19.211,10.416-19.211,18.972c0,0.986,0,1.973,0,2.959
		C266.745,507.94,272.885,503.866,279.93,502.69z"/><path fill="#ce5555" d="M407.077,589.525c-35.217,3.474-70.689,3.474-105.906,0
		c-7.648-0.754-13.661-6.923-14.272-14.584c-0.519-6.506-0.519-12.962,0-19.469c0.611-7.661,6.624-13.829,14.272-14.584
		c35.217-3.474,70.69-3.474,105.906,0c7.648,0.754,13.661,6.923,14.272,14.584c0.519,6.506,0.519,12.962,0,19.469
		C420.738,582.602,414.725,588.771,407.077,589.525z"/><path fill="#ce5555" d="M419.026,560.559c-0.59,7.661-6.395,13.829-13.779,14.584
		c-34,3.474-68.247,3.474-102.247,0c-7.384-0.754-13.189-6.923-13.779-14.584c-0.065-0.849-0.099-1.695-0.147-2.542
		c-0.322,5.647-0.288,11.268,0.147,16.925c0.59,7.661,6.395,13.829,13.779,14.584c34,3.474,68.247,3.474,102.247,0
		c7.384-0.754,13.189-6.923,13.779-14.584c0.436-5.658,0.469-11.279,0.147-16.926C419.125,558.863,419.092,559.71,419.026,560.559z" opacity=".47"/><path fill="#ce5555" d="M286.899,563.473c0.611-7.661,6.624-13.829,14.272-14.584
		c35.217-3.474,70.69-3.474,105.906,0c7.648,0.754,13.661,6.923,14.272,14.584c0.153,1.915,0.246,3.826,0.309,5.734
		c0.151-4.577,0.057-9.143-0.309-13.734c-0.611-7.661-6.624-13.829-14.272-14.584c-35.216-3.474-70.69-3.474-105.906,0
		c-7.648,0.754-13.661,6.923-14.272,14.584c-0.366,4.592-0.46,9.159-0.309,13.736C286.652,567.299,286.746,565.388,286.899,563.473z
		" opacity=".5"/><path fill="none" stroke="#333" stroke-linecap="round" stroke-linejoin="round" stroke-miterlimit="10" stroke-width="10" d="
		M407.077,589.525c-35.217,3.474-70.689,3.474-105.906,0c-7.648-0.754-13.661-6.923-14.272-14.584
		c-0.519-6.506-0.519-12.962,0-19.469c0.611-7.661,6.624-13.829,14.272-14.584c35.217-3.474,70.69-3.474,105.906,0
		c7.648,0.754,13.661,6.923,14.272,14.584c0.519,6.506,0.519,12.962,0,19.469C420.738,582.602,414.725,588.771,407.077,589.525z"/><path fill="#ce5555" d="M574.829,589.525c-35.217,3.474-70.689,3.474-105.906,0
		c-7.648-0.754-13.661-6.923-14.272-14.584c-0.519-6.506-0.519-12.962,0-19.469c0.611-7.661,6.624-13.829,14.272-14.584
		c35.217-3.474,70.69-3.474,105.906,0c7.648,0.754,13.661,6.923,14.272,14.584c0.519,6.506,0.519,12.962,0,19.469
		C588.49,582.602,582.477,588.771,574.829,589.525z"/><path fill="#ce5555" d="M585.533,560.559c-0.578,7.661-6.272,13.829-13.515,14.584
		c-33.347,3.474-66.938,3.474-100.285,0c-7.242-0.754-12.936-6.923-13.515-14.584c-0.064-0.849-0.097-1.695-0.144-2.542
		c-0.316,5.647-0.283,11.268,0.144,16.925c0.578,7.661,6.272,13.829,13.515,14.584c33.348,3.474,66.938,3.474,100.285,0
		c7.242-0.754,12.936-6.923,13.515-14.584c0.427-5.657,0.46-11.278,0.144-16.926C585.63,558.863,585.597,559.71,585.533,560.559z" opacity=".47"/><path fill="#ce5555" d="M454.651,563.473c0.611-7.661,6.624-13.829,14.272-14.584
		c35.217-3.474,70.69-3.474,105.906,0c7.648,0.754,13.661,6.923,14.272,14.584c0.153,1.915,0.246,3.826,0.309,5.734
		c0.151-4.577,0.057-9.143-0.309-13.734c-0.611-7.661-6.624-13.829-14.272-14.584c-35.216-3.474-70.69-3.474-105.906,0
		c-7.648,0.754-13.661,6.923-14.272,14.584c-0.366,4.592-0.46,9.159-0.309,13.736C454.405,567.299,454.498,565.388,454.651,563.473z
		" opacity=".5"/><path fill="none" stroke="#333" stroke-linecap="round" stroke-linejoin="round" stroke-miterlimit="10" stroke-width="10" d="
		M574.829,589.525c-35.217,3.474-70.689,3.474-105.906,0c-7.648-0.754-13.661-6.923-14.272-14.584
		c-0.519-6.506-0.519-12.962,0-19.469c0.611-7.661,6.624-13.829,14.272-14.584c35.217-3.474,70.69-3.474,105.906,0
		c7.648,0.754,13.661,6.923,14.272,14.584c0.519,6.506,0.519,12.962,0,19.469C588.49,582.602,582.477,588.771,574.829,589.525z"/><path fill="none" stroke="#333" stroke-linecap="round" stroke-linejoin="round" stroke-miterlimit="10" stroke-width="10" d="
		M618,614.894c-118.537,23.977-241.463,23.977-360,0c0-33.357,0-66.713,0-100.069c0-9.864,8.841-19.793,19.795-21.872
		c105.776-18.945,214.633-18.945,320.409,0c10.955,2.08,19.795,12.008,19.795,21.872C618,548.181,618,581.538,618,614.894z"/><path fill="#b2c68b" d="M627,622.377H249l0,0c0-17.697,14.346-32.043,32.043-32.043h313.913
		C612.654,590.334,627,604.68,627,622.377L627,622.377z"/><rect width="378" height="16.022" x="249" y="606.355" fill="#aabc80" opacity=".38"/><path fill="none" stroke="#333" stroke-linecap="round" stroke-linejoin="round" stroke-miterlimit="10" stroke-width="10" d="
		M627,622.377H249l0,0c0-17.697,14.346-32.043,32.043-32.043h313.913C612.654,590.334,627,604.68,627,622.377L627,622.377z"/><path fill="#aa7d5e" d="M634,706H242v-75.623c0-4.418,3.582-8,8-8h376c4.418,0,8,3.582,8,8V706z"/><path fill="#ffc758" d="M634,706H242v-75.623c0-4.418,3.582-8,8-8h376c4.418,0,8,3.582,8,8V706z"/><rect width="392" height="11.667" x="242" y="694.333" fill="#ffc758" opacity=".96"/><path fill="#f9d895" d="M634,632.877H242v-2.5c0-4.418,3.582-8,8-8h376c4.418,0,8,3.582,8,8V632.877z"/><path fill="none" stroke="#333" stroke-linecap="round" stroke-linejoin="round" stroke-miterlimit="10" stroke-width="10" d="
		M634,706H242v-75.623c0-4.418,3.582-8,8-8h376c4.418,0,8,3.582,8,8V706z"/><polygon fill="none" stroke="#333" stroke-linecap="round" stroke-linejoin="round" stroke-miterlimit="10" stroke-width="10" points="372.326 726 284.555 726 284.555 706 392.549 706"/><polygon fill="none" stroke="#333" stroke-linecap="round" stroke-linejoin="round" stroke-miterlimit="10" stroke-width="10" points="503.674 726 591.445 726 591.445 706 483.451 706"/><rect width="110" height="16" x="337.322" y="259.8" fill="#6a6a68"/><rect width="110" height="16" x="337.322" y="259.8" fill="none" stroke="#333" stroke-linecap="round" stroke-linejoin="round" stroke-miterlimit="10" stroke-width="10"/><rect width="23.333" height="83.734" x="346.995" y="176.066" fill="none" stroke="#333" stroke-linecap="round" stroke-linejoin="round" stroke-miterlimit="10" stroke-width="10"/><rect width="23.333" height="83.734" x="346.995" y="176.066" fill="#629ec0" opacity=".38"/><rect width="23.333" height="105.067" x="370.328" y="154.733" fill="#ffc859"/><rect width="23.333" height="105.067" x="370.328" y="154.733" fill="none" stroke="#333" stroke-linecap="round" stroke-linejoin="round" stroke-miterlimit="10" stroke-width="10"/><rect width="22.337" height="83.734" x="408.403" y="170.855" fill="#ff7373" transform="rotate(-21.789 419.512 212.7)"/><rect width="22.337" height="83.734" x="408.403" y="170.855" fill="none" stroke="#333" stroke-linecap="round" stroke-linejoin="round" stroke-miterlimit="10" stroke-width="10" transform="rotate(-21.789 419.512 212.7)"/><rect width="102.091" height="101.6" x="376.504" y="298.734" fill="#f9f9f9"/><rect width="102.091" height="101.6" x="376.504" y="298.734" fill="none" stroke="#333" stroke-linecap="round" stroke-linejoin="round" stroke-miterlimit="10" stroke-width="10"/><rect width="79.6" height="80.091" x="387.75" y="309.488" fill="#b7f2a7" transform="rotate(90 427.55 349.534)"/><rect width="77.052" height="101.6" x="497.483" y="225" fill="#f9f9f9"/><rect width="77.052" height="101.6" x="497.483" y="225" fill="none" stroke="#333" stroke-linecap="round" stroke-linejoin="round" stroke-miterlimit="10" stroke-width="10"/><rect width="79.6" height="55.053" x="496.21" y="248.273" fill="#9fd3ed" transform="rotate(90 536.01 275.8)"/><rect width="105.052" height="78.667" x="497.483" y="349.534" fill="#f9f9f9"/><rect width="105.052" height="78.667" x="497.483" y="349.534" fill="none" stroke="#333" stroke-linecap="round" stroke-linejoin="round" stroke-miterlimit="10" stroke-width="10"/><rect width="56.667" height="83.053" x="521.677" y="347.341" fill="#f97d7d" transform="rotate(90 550.01 388.867)"/><g><path fill="#f9f9f9" d="M737.168,336.619l-37.709-37.709c-7.824-7.824-7.824-20.509,0-28.333l37.709-37.709
		c7.824-7.824,20.509-7.824,28.333,0l37.709,37.709c7.824,7.824,7.824,20.509,0,28.333l-37.709,37.709
		C757.677,344.443,744.992,344.443,737.168,336.619z"/><path fill="#bfbfbf" d="M741.957,242.396c5.158-4.636,13.598-4.636,18.756,0l50.019,44.958
		c-0.1-4.996-2.096-9.964-6.019-13.776l-38.802-37.709c-8.05-7.824-21.103-7.824-29.153,0l-38.801,37.709
		c-3.923,3.813-5.919,8.78-6.019,13.776L741.957,242.396z"/><path fill="none" stroke="#333" stroke-linecap="round" stroke-linejoin="round" stroke-miterlimit="10" stroke-width="10" d="
		M737.168,336.619l-37.709-37.709c-7.824-7.824-7.824-20.509,0-28.333l37.709-37.709c7.824-7.824,20.509-7.824,28.333,0
		l37.709,37.709c7.824,7.824,7.824,20.509,0,28.333l-37.709,37.709C757.677,344.443,744.992,344.443,737.168,336.619z"/><line x1="751.335" x2="751.335" y1="241.361" y2="233.511" fill="none" stroke="#333" stroke-linecap="round" stroke-linejoin="round" stroke-miterlimit="10" stroke-width="6"/><line x1="751.335" x2="751.335" y1="335.975" y2="328.126" fill="none" stroke="#333" stroke-linecap="round" stroke-linejoin="round" stroke-miterlimit="10" stroke-width="6"/><line x1="794.717" x2="802.566" y1="284.743" y2="284.743" fill="none" stroke="#333" stroke-linecap="round" stroke-linejoin="round" stroke-miterlimit="10" stroke-width="6"/><line x1="700.103" x2="707.952" y1="284.743" y2="284.743" fill="none" stroke="#333" stroke-linecap="round" stroke-linejoin="round" stroke-miterlimit="10" stroke-width="6"/><line x1="751.335" x2="738.747" y1="284.743" y2="273.033" fill="none" stroke="#333" stroke-linecap="round" stroke-linejoin="round" stroke-miterlimit="10" stroke-width="8"/><line x1="770.143" x2="751.335" y1="259.881" y2="286.186" fill="none" stroke="#333" stroke-linecap="round" stroke-linejoin="round" stroke-miterlimit="10" stroke-width="5"/><circle cx="752.313" cy="284.743" r="6.162" fill="#333"/></g><g><rect width="142" height="130" x="674.001" y="577.748" fill="#996447"/><rect width="48.75" height="118" x="720.626" y="554.417" fill="#aa7d5e" transform="rotate(90 745.001 613.417)"/><rect width="48.75" height="118" x="720.626" y="613.078" fill="#aa7d5e" transform="rotate(90 745.001 672.078)"/><rect width="7.458" height="118" x="741.272" y="592.432" fill="#bf9e86" transform="rotate(90 745.001 651.432)"/><rect width="142" height="130" x="674.001" y="577.748" fill="none" stroke="#333" stroke-linecap="round" stroke-linejoin="round" stroke-miterlimit="10" stroke-width="10"/><rect width="7.458" height="118" x="741.272" y="533.771" fill="#bf9e86" transform="rotate(90 745.001 592.771)"/><rect width="48.75" height="118" x="720.626" y="554.417" fill="none" stroke="#333" stroke-linecap="round" stroke-linejoin="round" stroke-miterlimit="10" stroke-width="6" transform="rotate(90 745.001 613.417)"/><rect width="48.75" height="118" x="720.626" y="613.078" fill="none" stroke="#333" stroke-linecap="round" stroke-linejoin="round" stroke-miterlimit="10" stroke-width="6" transform="rotate(90 745.001 672.078)"/><path fill="none" stroke="#333" stroke-linecap="round" stroke-linejoin="round" stroke-miterlimit="10" stroke-width="12" d="
		M711.333,496.874v-5.625c0-21.378,16.267-38.708,36.333-38.708h0c20.066,0,36.333,17.33,36.333,38.708v71.959"/><rect width="49.835" height="18" x="749.5" y="559.748" fill="#b67dbc"/><rect width="49.835" height="8.127" x="749.5" y="559.748" fill="#b67dbc" opacity=".44"/><rect width="49.835" height="18" x="749.5" y="559.748" fill="none" stroke="#333" stroke-linecap="round" stroke-linejoin="round" stroke-miterlimit="10" stroke-width="10"/><path fill="#9a5ba2" d="M738.051,527.349c0.882-3.607,1.365-7.453,1.365-11.449
		c0-20.521-12.573-37.156-28.083-37.156c-15.51,0-28.083,16.635-28.083,37.156c0,3.996,0.482,7.841,1.365,11.449H738.051z"/><path fill="#b67dbc" d="M719.428,498.97c0-7.32-1.69-14.148-4.606-19.93
		c-1.144-0.188-2.306-0.296-3.489-0.296c-15.51,0-28.083,16.635-28.083,37.156c0,3.996,0.482,7.841,1.365,11.449h24.395
		C715.391,520.44,719.428,510.292,719.428,498.97z"/><path fill="none" stroke="#333" stroke-linecap="round" stroke-linejoin="round" stroke-miterlimit="10" stroke-width="10" d="
		M738.051,527.349c0.882-3.607,1.365-7.453,1.365-11.449c0-20.521-12.573-37.156-28.083-37.156
		c-15.51,0-28.083,16.635-28.083,37.156c0,3.996,0.482,7.841,1.365,11.449H738.051z"/><rect width="34.667" height="14" x="727.668" y="606.417" fill="#474747"/><rect width="34.667" height="14" x="727.668" y="606.417" fill="none" stroke="#333" stroke-linecap="round" stroke-linejoin="round" stroke-miterlimit="10" stroke-width="6"/><rect width="34.667" height="14" x="727.668" y="665.078" fill="#474747"/><rect width="34.667" height="14" x="727.668" y="665.078" fill="none" stroke="#333" stroke-linecap="round" stroke-linejoin="round" stroke-miterlimit="10" stroke-width="6"/><polygon fill="#333" points="714.668 726 686.668 726 686.668 707.748 730.668 707.748"/><polygon fill="none" stroke="#333" stroke-linecap="round" stroke-linejoin="round" stroke-miterlimit="10" stroke-width="10" points="714.668 726 686.668 726 686.668 707.748 730.668 707.748"/><polygon fill="#333" points="775.335 726 803.335 726 803.335 707.748 759.335 707.748"/><polygon fill="none" stroke="#333" stroke-linecap="round" stroke-linejoin="round" stroke-miterlimit="10" stroke-width="10" points="775.335 726 803.335 726 803.335 707.748 759.335 707.748"/><ellipse cx="741.278" cy="494.904" fill="#b67dbc" opacity=".44" rx="4.2" ry="3.324" transform="rotate(-65.721 741.25 494.879)"/></g><line x1="396.5" x2="423.85" y1="352.2" y2="324.85" fill="none" stroke="#333" stroke-linecap="round" stroke-linejoin="round" stroke-miterlimit="10" stroke-width="4"/><line x1="421.096" x2="445.779" y1="349.534" y2="324.85" fill="none" stroke="#333" stroke-linecap="round" stroke-linejoin="round" stroke-miterlimit="10" stroke-width="4"/><line x1="401.921" x2="411.981" y1="368.709" y2="358.648" fill="none" stroke="#333" stroke-linecap="round" stroke-linejoin="round" stroke-miterlimit="10" stroke-width="4"/><line x1="520.333" x2="539" y1="272.333" y2="253.667" fill="none" stroke="#333" stroke-linecap="round" stroke-linejoin="round" stroke-miterlimit="10" stroke-width="4"/><line x1="548.267" x2="555.467" y1="267.8" y2="260.6" fill="none" stroke="#333" stroke-linecap="round" stroke-linejoin="round" stroke-miterlimit="10" stroke-width="4"/><line x1="517.333" x2="540.267" y1="298.734" y2="275.8" fill="none" stroke="#333" stroke-linecap="round" stroke-linejoin="round" stroke-miterlimit="10" stroke-width="4"/><line x1="533.592" x2="567.342" y1="404.592" y2="370.842" fill="none" stroke="#333" stroke-linecap="round" stroke-linejoin="round" stroke-miterlimit="10" stroke-width="4"/><line x1="528.402" x2="543.618" y1="388.867" y2="373.651" fill="none" stroke="#333" stroke-linecap="round" stroke-linejoin="round" stroke-miterlimit="10" stroke-width="4"/><line x1="401.637" x2="422.216" y1="197.945" y2="189.247" fill="none" stroke="#333" stroke-linecap="round" stroke-linejoin="round" stroke-miterlimit="10" stroke-width="10"/><line x1="370.328" x2="393.661" y1="181.25" y2="181.25" fill="none" stroke="#333" stroke-linecap="round" stroke-linejoin="round" stroke-miterlimit="10" stroke-width="10"/><line x1="346.995" x2="370.328" y1="194.871" y2="194.871" fill="none" stroke="#333" stroke-linecap="round" stroke-linejoin="round" stroke-miterlimit="10" stroke-width="10"/><g><rect width="110" height="16" x="172.054" y="412.2" fill="#6a6a68"/><rect width="110" height="16" x="172.054" y="412.2" fill="none" stroke="#333" stroke-linecap="round" stroke-linejoin="round" stroke-miterlimit="10" stroke-width="10"/><polyline fill="none" stroke="#333" stroke-linecap="round" stroke-linejoin="round" stroke-miterlimit="10" stroke-width="5" points="209.031 219.197 227.031 233.173 227.031 299.667"/><line x1="236.053" x2="236.053" y1="268.42" y2="301.667" fill="none" stroke="#333" stroke-linecap="round" stroke-linejoin="round" stroke-miterlimit="10" stroke-width="5"/><line x1="216.667" x2="216.667" y1="244" y2="300" fill="none" stroke="#333" stroke-linecap="round" stroke-linejoin="round" stroke-miterlimit="10" stroke-width="5"/><path fill="#7d80ba" d="M244.552,354.11V289.2h-34.998v64.909c0,2.227-0.952,4.341-2.605,5.834
		c-6.342,5.729-10.227,14.125-9.874,23.424c0.578,15.238,12.843,27.829,28.063,28.774c17.436,1.083,31.915-12.738,31.915-29.94
		c0-8.851-3.837-16.801-9.934-22.291C245.478,358.431,244.552,356.319,244.552,354.11z"/><g opacity=".6"><path fill="#7d80ba" d="M257.054 364.491c-.64-1.17-1.348-2.298-2.133-3.366C255.323 362.402 256.051 363.565 257.054 364.491zM207.078 388.017c-.353-9.299 3.532-17.694 9.874-23.424 1.652-1.493 2.605-3.607 2.605-5.834v-64.909h28.664v-8h-34.998v64.909c0 2.227-.952 4.341-2.605 5.834-6.342 5.729-10.227 14.125-9.874 23.424.315 8.312 4.113 15.83 9.965 21.106C208.555 397.185 207.257 392.728 207.078 388.017z"/></g><path fill="none" stroke="#333" stroke-linecap="round" stroke-linejoin="round" stroke-miterlimit="10" stroke-width="10" d="
		M244.552,354.11V289.2h-34.998v64.909c0,2.227-0.952,4.341-2.605,5.834c-6.342,5.729-10.227,14.125-9.874,23.424
		c0.578,15.238,12.843,27.829,28.063,28.774c17.436,1.083,31.915-12.738,31.915-29.94c0-8.851-3.837-16.801-9.934-22.291
		C245.478,358.431,244.552,356.319,244.552,354.11z"/><polyline fill="none" stroke="#333" stroke-linecap="round" stroke-linejoin="round" stroke-miterlimit="10" stroke-width="5" points="227.031 250.168 241.547 240.374 241.547 219.197 251.076 209.933"/><line x1="241.547" x2="241.547" y1="174.066" y2="219.197" fill="none" stroke="#333" stroke-linecap="round" stroke-linejoin="round" stroke-miterlimit="10" stroke-width="5"/><line x1="227.031" x2="241.547" y1="182.986" y2="194.871" fill="none" stroke="#333" stroke-linecap="round" stroke-linejoin="round" stroke-miterlimit="10" stroke-width="5"/><path fill="none" stroke="#333" stroke-linecap="round" stroke-linejoin="round" stroke-miterlimit="10" stroke-width="5" d="
		M206.031,259.8l10.636,8.62L206.031,259.8z"/><ellipse cx="220.519" cy="381.463" fill="#7d80ba" opacity=".6" rx="5.5" ry="3.931" transform="rotate(-60.284 220.504 381.452)"/></g><line x1="495.132" x2="574.326" y1="774.577" y2="774.577" fill="none" stroke="#1d2f3d" stroke-linecap="round" stroke-linejoin="round" stroke-miterlimit="10" stroke-width="10"/><line x1="460.341" x2="473" y1="774.577" y2="774.577" fill="none" stroke="#1d2f3d" stroke-linecap="round" stroke-linejoin="round" stroke-miterlimit="10" stroke-width="10"/></svg>